<svg xmlns="http://www.w3.org/2000/svg" viewBox="0 0 48 48" width="48" height="48">
  <defs>
    <linearGradient id="fg" x1="0%" y1="0%" x2="100%" y2="100%">
      <stop offset="0%" style="stop-color:#669df6"/>
      <stop offset="50%" style="stop-color:#8ab4f8"/>
      <stop offset="100%" style="stop-color:#81c995"/>
    </linearGradient>
    <linearGradient id="ig" x1="0%" y1="0%" x2="100%" y2="100%">
      <stop offset="0%" style="stop-color:#c58af9"/>
      <stop offset="100%" style="stop-color:#8ab4f8"/>
    </linearGradient>
  </defs>
  <circle cx="24" cy="24" r="22" fill="#1b1b1f" stroke="url(#fg)" stroke-width="2"/>
  <g transform="translate(24,24)">
    <polygon points="0,-16 2,-5 0,-3 -2,-5" fill="url(#fg)"/>
    <polygon points="0,16 2,5 0,3 -2,5" fill="url(#fg)"/>
    <polygon points="-16,0 -5,2 -3,0 -5,-2" fill="url(#fg)"/>
    <polygon points="16,0 5,2 3,0 5,-2" fill="url(#fg)"/>
    <polygon points="-11,-11 -4,-2 -2,-2 -2,-4" fill="url(#ig)" opacity="0.7"/>
    <polygon points="11,11 4,2 2,2 2,4" fill="url(#ig)" opacity="0.7"/>
    <polygon points="11,-11 4,-2 2,-2 2,-4" fill="url(#ig)" opacity="0.7"/>
    <polygon points="-11,11 -4,2 -2,2 -2,4" fill="url(#ig)" opacity="0.7"/>
    <circle cx="0" cy="0" r="4" fill="#e8eaed"/>
    <circle cx="0" cy="0" r="2.5" fill="white" opacity="0.9"/>
  </g>
</svg>